<svg width="36" height="36" viewBox="0 0 36 36" xmlns="http://www.w3.org/2000/svg">
<path d="M32.7863 9.88883H26.856C27.4024 9.02901 27.7238 8.00847 27.7238 6.91562C27.7238 3.85803 25.2368 1.37097 22.1792 1.37097C20.5158 1.37097 19.0171 2.11026 18.0006 3.27544C16.9841 2.11026 15.4855 1.37097 13.8221 1.37097C10.7645 1.37097 8.27741 3.85803 8.27741 6.91562C8.27741 8.00847 8.59482 9.02901 9.14527 9.88883H3.21491C2.50375 9.88883 1.9292 10.4634 1.9292 11.1745V19.2103C1.9292 19.387 2.07384 19.5317 2.25063 19.5317H3.85777V33.3531C3.85777 34.0643 4.43232 34.6388 5.14349 34.6388H30.8578C31.5689 34.6388 32.1435 34.0643 32.1435 33.3531V19.5317H33.7506C33.9274 19.5317 34.0721 19.387 34.0721 19.2103V11.1745C34.0721 10.4634 33.4975 9.88883 32.7863 9.88883ZM19.3667 6.91562C19.3667 5.36472 20.6283 4.10311 22.1792 4.10311C23.7301 4.10311 24.9917 5.36472 24.9917 6.91562C24.9917 8.46651 23.7301 9.72812 22.1792 9.72812H19.3667V6.91562ZM13.8221 4.10311C15.373 4.10311 16.6346 5.36472 16.6346 6.91562V9.72812H13.8221C12.2712 9.72812 11.0096 8.46651 11.0096 6.91562C11.0096 5.36472 12.2712 4.10311 13.8221 4.10311ZM4.66134 16.7995V12.621H16.6346V16.7995H4.66134ZM6.58991 19.5317H16.6346V31.9067H6.58991V19.5317ZM29.4113 31.9067H19.3667V19.5317H29.4113V31.9067ZM31.3399 16.7995H19.3667V12.621H31.3399V16.7995Z" />
</svg>
