<svg width="36" height="36" viewBox="0 0 36 36" fill="none" xmlns="http://www.w3.org/2000/svg">
<path d="M30.9375 3.9375H5.0625C4.44023 3.9375 3.9375 4.44023 3.9375 5.0625V30.9375C3.9375 31.5598 4.44023 32.0625 5.0625 32.0625H30.9375C31.5598 32.0625 32.0625 31.5598 32.0625 30.9375V5.0625C32.0625 4.44023 31.5598 3.9375 30.9375 3.9375ZM12.9375 26.1562C12.9375 26.3109 12.8109 26.4375 12.6562 26.4375H9.84375C9.68906 26.4375 9.5625 26.3109 9.5625 26.1562V9.84375C9.5625 9.68906 9.68906 9.5625 9.84375 9.5625H12.6562C12.8109 9.5625 12.9375 9.68906 12.9375 9.84375V26.1562ZM19.6875 16.3125C19.6875 16.4672 19.5609 16.5938 19.4062 16.5938H16.5938C16.4391 16.5938 16.3125 16.4672 16.3125 16.3125V9.84375C16.3125 9.68906 16.4391 9.5625 16.5938 9.5625H19.4062C19.5609 9.5625 19.6875 9.68906 19.6875 9.84375V16.3125ZM26.4375 18.8438C26.4375 18.9984 26.3109 19.125 26.1562 19.125H23.3438C23.1891 19.125 23.0625 18.9984 23.0625 18.8438V9.84375C23.0625 9.68906 23.1891 9.5625 23.3438 9.5625H26.1562C26.3109 9.5625 26.4375 9.68906 26.4375 9.84375V18.8438Z" fill="white"/>
</svg>
