<svg width="36" height="37" viewBox="0 0 36 37" xmlns="http://www.w3.org/2000/svg">
<path d="M6.67023 33.9866L6.67023 14.0581C6.67023 13.8813 6.52559 13.7366 6.3488 13.7366L4.0988 13.7366C3.92202 13.7366 3.77737 13.8813 3.77737 14.0581L3.77737 33.9866C3.77737 34.1634 3.92202 34.3081 4.0988 34.3081L6.3488 34.3081C6.52559 34.3081 6.67023 34.1634 6.67023 33.9866ZM23.7059 33.9866L23.7059 14.0581C23.7059 13.8813 23.5613 13.7366 23.3845 13.7366L21.1345 13.7366C20.9577 13.7366 20.8131 13.8813 20.8131 14.0581L20.8131 33.9866C20.8131 34.1634 20.9577 34.3081 21.1345 34.3081L23.3845 34.3081C23.5613 34.3081 23.7059 34.1634 23.7059 33.9866ZM29.3309 2.48663L29.3309 33.9866C29.3309 34.1634 29.4756 34.3081 29.6524 34.3081L31.9024 34.3081C32.0792 34.3081 32.2238 34.1634 32.2238 33.9866L32.2238 2.48663C32.2238 2.30984 32.0792 2.1652 31.9024 2.1652L29.6524 2.1652C29.4756 2.1652 29.3309 2.30984 29.3309 2.48663ZM12.2952 2.48663L12.2952 33.9866C12.2952 34.1634 12.4399 34.3081 12.6167 34.3081L14.8667 34.3081C15.0434 34.3081 15.1881 34.1634 15.1881 33.9866L15.1881 2.48663C15.1881 2.30984 15.0434 2.1652 14.8667 2.1652L12.6167 2.1652C12.4399 2.1652 12.2952 2.30984 12.2952 2.48663Z"/>
</svg>
