<svg width="20" height="20" viewBox="0 0 20 20" xmlns="http://www.w3.org/2000/svg">
<path d="M18.125 3.125H1.875C1.5293 3.125 1.25 3.4043 1.25 3.75V6.875H18.75V3.75C18.75 3.4043 18.4707 3.125 18.125 3.125ZM1.25 16.25C1.25 16.5957 1.5293 16.875 1.875 16.875H18.125C18.4707 16.875 18.75 16.5957 18.75 16.25V8.59375H1.25V16.25ZM12.5586 12.6562C12.5586 12.5703 12.6289 12.5 12.7148 12.5H15.9375C16.0234 12.5 16.0938 12.5703 16.0938 12.6562V14.0625C16.0938 14.1484 16.0234 14.2188 15.9375 14.2188H12.7148C12.6289 14.2188 12.5586 14.1484 12.5586 14.0625V12.6562Z"/>
</svg>
