<svg width="37" height="36" viewBox="0 0 37 36" fill="none" xmlns="http://www.w3.org/2000/svg">
<path d="M30.1979 6.75H28.2292V4.21875C28.2292 3.75117 27.853 3.375 27.3854 3.375H6.57294C6.10536 3.375 5.72919 3.75117 5.72919 4.21875V13.7812C5.72919 14.2488 6.10536 14.625 6.57294 14.625H27.3854C27.853 14.625 28.2292 14.2488 28.2292 13.7812V9H29.3542V16.0312H17.0143C16.2374 16.0312 15.6081 16.6605 15.6081 17.4375V22.2188H14.0612C13.9065 22.2188 13.78 22.3453 13.78 22.5V30.5156C13.78 30.5543 13.787 30.593 13.8011 30.6246C13.787 30.6809 13.78 30.7371 13.78 30.7969C13.78 32.4281 15.1018 33.75 16.7331 33.75C18.3643 33.75 19.6862 32.4281 19.6862 30.7969C19.6862 30.7371 19.6792 30.6809 19.6651 30.6246C19.6792 30.5895 19.6862 30.5543 19.6862 30.5156V22.5C19.6862 22.3453 19.5597 22.2188 19.405 22.2188H17.8581V18.2812H30.1979C30.9749 18.2812 31.6042 17.652 31.6042 16.875V8.15625C31.6042 7.3793 30.9749 6.75 30.1979 6.75Z" fill="white"/>
</svg>
