<svg width="36" height="37" viewBox="0 0 36 37" fill="none" xmlns="http://www.w3.org/2000/svg">
<path d="M32.4492 10.2045C31.978 9.11341 31.2985 8.12465 30.4488 7.29359C29.5985 6.46006 28.596 5.79766 27.4957 5.34242C26.3548 4.86849 25.1311 4.6259 23.8957 4.62875C22.1625 4.62875 20.4715 5.10336 19.002 5.99984C18.6504 6.21429 18.3164 6.44984 18 6.70648C17.6836 6.44984 17.3496 6.21429 16.998 5.99984C15.5285 5.10336 13.8375 4.62875 12.1043 4.62875C10.8562 4.62875 9.64687 4.86781 8.5043 5.34242C7.40039 5.79945 6.40547 6.45687 5.55117 7.29359C4.70038 8.12371 4.02074 9.1127 3.55078 10.2045C3.06211 11.3401 2.8125 12.5459 2.8125 13.787C2.8125 14.9577 3.05156 16.1776 3.52617 17.4186C3.92344 18.4557 4.49297 19.5315 5.2207 20.6178C6.37383 22.3369 7.95937 24.1299 9.92812 25.9475C13.1906 28.9604 16.4215 31.0416 16.5586 31.126L17.3918 31.6604C17.7609 31.8959 18.2355 31.8959 18.6047 31.6604L19.4379 31.126C19.575 31.0381 22.8023 28.9604 26.0684 25.9475C28.0371 24.1299 29.6227 22.3369 30.7758 20.6178C31.5035 19.5315 32.0766 18.4557 32.4703 17.4186C32.9449 16.1776 33.184 14.9577 33.184 13.787C33.1875 12.5459 32.9379 11.3401 32.4492 10.2045ZM18 28.8795C18 28.8795 5.48438 20.8604 5.48438 13.787C5.48438 10.2045 8.44805 7.30062 12.1043 7.30062C14.6742 7.30062 16.9031 8.735 18 10.8303C19.0969 8.735 21.3258 7.30062 23.8957 7.30062C27.552 7.30062 30.5156 10.2045 30.5156 13.787C30.5156 20.8604 18 28.8795 18 28.8795Z" fill="#7D8899"/>
</svg>
