<svg width="31" height="19" viewBox="0 0 31 19" fill="none" xmlns="http://www.w3.org/2000/svg">
<g clip-path="url(#clip0_806_630)">
<path d="M11.2143 9.27464C11.2143 6.34818 12.5199 3.63182 14.8161 1.8009C13.2703 0.675338 11.3794 0 9.32334 0C4.20578 0 0.0487061 4.15708 0.0487061 9.27464C0.0487061 14.3922 4.20578 18.5493 9.32334 18.5493C11.3794 18.5493 13.2703 17.874 14.8161 16.7484C12.5199 14.9175 11.2143 12.2011 11.2143 9.27464Z" fill="white"/>
<path d="M20.7741 0C18.718 0 16.8271 0.675338 15.2813 1.8009C17.5625 3.63182 18.8831 6.34818 18.8831 9.27464C18.8831 12.2011 17.5775 14.9175 15.2813 16.7484C16.8121 17.874 18.718 18.5493 20.7741 18.5493C25.8916 18.5493 30.0487 14.3922 30.0487 9.27464C30.0487 4.15708 25.9066 0 20.7741 0Z" fill="white"/>
<path d="M11.5146 9.27461C11.5146 12.2311 12.8953 14.8724 15.0564 16.5683C17.2174 14.8724 18.5981 12.2311 18.5981 9.27461C18.5981 6.31813 17.2174 3.67681 15.0564 1.98096C12.8953 3.69181 11.5146 6.31813 11.5146 9.27461Z" fill="white"/>
</g>
<defs>
<clipPath id="clip0_806_630">
<rect width="30" height="18.5493" fill="white" transform="translate(0.0487061)"/>
</clipPath>
</defs>
</svg>
