<svg width="36" height="37" viewBox="0 0 36 37" fill="none" xmlns="http://www.w3.org/2000/svg">
<path d="M33.7495 4.08401H2.24954C2.07276 4.08401 1.92812 4.22866 1.92812 4.40544V6.97687C1.92812 7.15366 2.07276 7.2983 2.24954 7.2983H33.7495C33.9263 7.2983 34.071 7.15366 34.071 6.97687V4.40544C34.071 4.22866 33.9263 4.08401 33.7495 4.08401ZM33.7495 29.1554H2.24954C2.07276 29.1554 1.92812 29.3001 1.92812 29.4769V32.0483C1.92812 32.2251 2.07276 32.3697 2.24954 32.3697H33.7495C33.9263 32.3697 34.071 32.2251 34.071 32.0483V29.4769C34.071 29.3001 33.9263 29.1554 33.7495 29.1554ZM33.7495 16.6197H2.24954C2.07276 16.6197 1.92812 16.7644 1.92812 16.9412V19.5126C1.92812 19.6894 2.07276 19.834 2.24954 19.834H33.7495C33.9263 19.834 34.071 19.6894 34.071 19.5126V16.9412C34.071 16.7644 33.9263 16.6197 33.7495 16.6197Z" fill="#7D8899"/>
</svg>
