<svg width="36" height="37" viewBox="0 0 36 37" fill="none" xmlns="http://www.w3.org/2000/svg">
<path d="M19.205 3.77179H16.7943C16.58 3.77179 16.4729 3.87893 16.4729 4.09322V16.7093H4.50063C4.28634 16.7093 4.1792 16.8164 4.1792 17.0307V19.4414C4.1792 19.6557 4.28634 19.7629 4.50063 19.7629H16.4729V32.3789C16.4729 32.5932 16.58 32.7004 16.7943 32.7004H19.205C19.4193 32.7004 19.5265 32.5932 19.5265 32.3789V19.7629H31.5006C31.7149 19.7629 31.8221 19.6557 31.8221 19.4414V17.0307C31.8221 16.8164 31.7149 16.7093 31.5006 16.7093H19.5265V4.09322C19.5265 3.87893 19.4193 3.77179 19.205 3.77179Z" fill="#7D8899"/>
</svg>
