<svg width="36" height="37" viewBox="0 0 36 37" fill="none" xmlns="http://www.w3.org/2000/svg">
<path d="M27.6426 24.3413C26.4975 24.3413 25.4408 24.7431 24.6131 25.4141L16.2881 19.3913C16.4275 18.6262 16.4275 17.8422 16.2881 17.0771L24.6131 11.0543C25.4408 11.7253 26.4975 12.127 27.6426 12.127C30.3024 12.127 32.464 9.96544 32.464 7.30562C32.464 4.6458 30.3024 2.48419 27.6426 2.48419C24.9827 2.48419 22.8211 4.6458 22.8211 7.30562C22.8211 7.77169 22.8854 8.21767 23.01 8.64357L15.1028 14.369C13.9296 12.8141 12.0653 11.8056 9.96399 11.8056C6.4122 11.8056 3.53542 14.6824 3.53542 18.2342C3.53542 21.786 6.4122 24.6628 9.96399 24.6628C12.0653 24.6628 13.9296 23.6543 15.1028 22.0994L23.01 27.8248C22.8854 28.2507 22.8211 28.7007 22.8211 29.1628C22.8211 31.8226 24.9827 33.9842 27.6426 33.9842C30.3024 33.9842 32.464 31.8226 32.464 29.1628C32.464 26.5029 30.3024 24.3413 27.6426 24.3413ZM27.6426 5.21634C28.7957 5.21634 29.7318 6.1525 29.7318 7.30562C29.7318 8.45875 28.7957 9.39491 27.6426 9.39491C26.4894 9.39491 25.5533 8.45875 25.5533 7.30562C25.5533 6.1525 26.4894 5.21634 27.6426 5.21634ZM9.96399 21.7699C8.01533 21.7699 6.42827 20.1829 6.42827 18.2342C6.42827 16.2855 8.01533 14.6985 9.96399 14.6985C11.9126 14.6985 13.4997 16.2855 13.4997 18.2342C13.4997 20.1829 11.9126 21.7699 9.96399 21.7699ZM27.6426 31.2521C26.4894 31.2521 25.5533 30.3159 25.5533 29.1628C25.5533 28.0096 26.4894 27.0735 27.6426 27.0735C28.7957 27.0735 29.7318 28.0096 29.7318 29.1628C29.7318 30.3159 28.7957 31.2521 27.6426 31.2521Z" fill="#7D8899"/>
</svg>
