<svg width="31" height="30" viewBox="0 0 31 30" fill="none" xmlns="http://www.w3.org/2000/svg">
<g clip-path="url(#clip0_806_626)">
<path d="M17.304 20.25C16.3733 20.25 15.4425 20.1157 14.5833 19.7798L15.0129 17.8993H15.0845C15.8005 18.2351 16.5881 18.4366 17.4473 18.4366H17.5189C18.2349 18.4366 18.9509 18.1679 18.9509 17.5634C18.9509 17.1604 18.6644 16.8918 17.662 16.4888C16.7313 16.0858 15.5141 15.347 15.5141 14.1381C15.5141 12.459 17.2325 11.25 19.5952 11.25C20.3828 11.25 21.1704 11.3843 21.8864 11.653L21.4568 13.4664C20.8124 13.1978 20.168 13.0634 19.452 13.0634C19.3088 13.0634 19.1656 13.0634 19.0224 13.0634C18.3065 13.1306 18.02 13.5336 18.02 13.8022C18.02 14.2052 18.5928 14.4739 19.2372 14.8097C20.2396 15.2799 21.4568 15.8843 21.4568 17.2276C21.5284 19.1082 19.8816 20.25 17.304 20.25ZM23.9628 20.1157H21.3852L25.0368 12.056C25.18 11.653 25.6095 11.3843 26.0391 11.3843H28.1155L30.0487 20.1157H27.8291L27.5427 18.8395H24.4639L23.9628 20.1157ZM26.4688 13.7351L25.1799 17.0261H27.1847L26.4688 13.7351ZM12.9365 20.1157H10.5021L12.507 11.3843H14.9413L12.9365 20.1157ZM7.49502 20.1157H4.91743L2.98425 13.1978C2.98425 12.8619 2.69786 12.5933 2.41146 12.459C1.62388 12.1231 0.836295 11.8545 0.0487061 11.7201L0.120288 11.4515H4.27306C4.84586 11.4515 5.27543 11.8545 5.41863 12.3246L6.42103 17.3619L8.927 11.4515H11.5045L7.49502 20.1157Z" fill="white"/>
</g>
<defs>
<clipPath id="clip0_806_626">
<rect width="30" height="30" fill="white" transform="translate(0.0487061)"/>
</clipPath>
</defs>
</svg>
