<svg width="37" height="37" viewBox="0 0 37 37" fill="#fff" xmlns="http://www.w3.org/2000/svg">
<path d="M33.276 16.7066H9.76751L23.838 4.49233C24.063 4.29545 23.9264 3.92983 23.6291 3.92983H20.0733C19.9166 3.92983 19.768 3.98608 19.6514 4.08652L4.46795 17.2611C4.32889 17.3816 4.21736 17.5306 4.14093 17.6981C4.06449 17.8655 4.02493 18.0474 4.02493 18.2314C4.02493 18.4154 4.06449 18.5973 4.14093 18.7647C4.21736 18.9321 4.32889 19.0812 4.46795 19.2017L19.7398 32.4566C19.8001 32.5088 19.8724 32.537 19.9488 32.537H23.6251C23.9224 32.537 24.059 32.1673 23.834 31.9745L9.76751 19.7602H33.276C33.4528 19.7602 33.5974 19.6155 33.5974 19.4388V17.028C33.5974 16.8513 33.4528 16.7066 33.276 16.7066Z"/>
</svg>
