<svg width="36" height="36" viewBox="0 0 36 36" xmlns="http://www.w3.org/2000/svg">
<path d="M30.8584 9.96919H25.3941V9.32633C25.3941 5.24419 22.0834 1.93347 18.0013 1.93347C13.9191 1.93347 10.6084 5.24419 10.6084 9.32633V9.96919H5.14411C4.43295 9.96919 3.8584 10.5437 3.8584 11.2549V32.7906C3.8584 33.5018 4.43295 34.0763 5.14411 34.0763H30.8584C31.5696 34.0763 32.1441 33.5018 32.1441 32.7906V11.2549C32.1441 10.5437 31.5696 9.96919 30.8584 9.96919ZM13.5013 9.32633C13.5013 6.83928 15.5142 4.82633 18.0013 4.82633C20.4883 4.82633 22.5013 6.83928 22.5013 9.32633V9.96919H13.5013V9.32633ZM29.2513 31.1835H6.75126V12.862H10.6084V16.3978C10.6084 16.5745 10.753 16.7192 10.9298 16.7192H13.1798C13.3566 16.7192 13.5013 16.5745 13.5013 16.3978V12.862H22.5013V16.3978C22.5013 16.5745 22.6459 16.7192 22.8227 16.7192H25.0727C25.2495 16.7192 25.3941 16.5745 25.3941 16.3978V12.862H29.2513V31.1835Z"/>
</svg>
