<svg width="36" height="37" viewBox="0 0 36 37" xmlns="http://www.w3.org/2000/svg">
<path d="M20.0807 18.8352L30.6275 6.26334C30.8043 6.05441 30.6557 5.737 30.3824 5.737H27.1762C26.9874 5.737 26.8066 5.82137 26.682 5.96602L17.9833 16.3361L9.28468 5.96602C9.16414 5.82137 8.98334 5.737 8.79048 5.737H5.58423C5.31102 5.737 5.16236 6.05441 5.33914 6.26334L15.886 18.8352L5.33914 31.4071C5.29954 31.4537 5.27414 31.5106 5.26594 31.5712C5.25775 31.6318 5.26711 31.6934 5.29291 31.7488C5.31872 31.8043 5.35988 31.8511 5.41152 31.8838C5.46316 31.9165 5.5231 31.9338 5.58423 31.9334H8.79048C8.97932 31.9334 9.16013 31.8491 9.28468 31.7044L17.9833 21.3343L26.682 31.7044C26.8025 31.8491 26.9833 31.9334 27.1762 31.9334H30.3824C30.6557 31.9334 30.8043 31.616 30.6275 31.4071L20.0807 18.8352Z" />
</svg>
