<svg width="37" height="36" viewBox="0 0 37 36" fill="none" xmlns="http://www.w3.org/2000/svg">
<path d="M30.7084 5.0625H20.0209C19.7115 5.0625 19.4584 5.31562 19.4584 5.625V16.3125C19.4584 16.6219 19.7115 16.875 20.0209 16.875H30.7084C31.0177 16.875 31.2709 16.6219 31.2709 16.3125V5.625C31.2709 5.31562 31.0177 5.0625 30.7084 5.0625ZM30.7084 19.125H20.0209C19.7115 19.125 19.4584 19.3781 19.4584 19.6875V30.375C19.4584 30.6844 19.7115 30.9375 20.0209 30.9375H30.7084C31.0177 30.9375 31.2709 30.6844 31.2709 30.375V19.6875C31.2709 19.3781 31.0177 19.125 30.7084 19.125ZM16.6459 5.0625H5.95837C5.649 5.0625 5.39587 5.31562 5.39587 5.625V16.3125C5.39587 16.6219 5.649 16.875 5.95837 16.875H16.6459C16.9552 16.875 17.2084 16.6219 17.2084 16.3125V5.625C17.2084 5.31562 16.9552 5.0625 16.6459 5.0625ZM16.6459 19.125H5.95837C5.649 19.125 5.39587 19.3781 5.39587 19.6875V30.375C5.39587 30.6844 5.649 30.9375 5.95837 30.9375H16.6459C16.9552 30.9375 17.2084 30.6844 17.2084 30.375V19.6875C17.2084 19.3781 16.9552 19.125 16.6459 19.125Z" fill="white"/>
</svg>
