<svg width="140" height="58" viewBox="0 0 140 58" fill="none" xmlns="http://www.w3.org/2000/svg">
<g clip-path="url(#clip0_806_130)">
<path fill-rule="evenodd" clip-rule="evenodd" d="M140 0.00676622L0 0V58H118.462V45.8181H129.093V17.5773H140V0.00676622Z" fill="#312783"/>
<path fill-rule="evenodd" clip-rule="evenodd" d="M103.387 23.0796C100.354 23.0796 97.8866 20.6072 97.8866 17.5692C97.8866 14.5311 100.354 12.0588 103.387 12.0588C106.419 12.0588 108.887 14.5311 108.887 17.5692C108.887 20.6085 106.419 23.0796 103.387 23.0796ZM103.387 6.04224C97.0424 6.04224 91.8799 11.2143 91.8799 17.5705C91.8799 23.9267 97.0424 29.0988 103.387 29.0988C109.731 29.0988 114.894 23.9281 114.894 17.5705C114.894 11.213 109.731 6.04224 103.387 6.04224Z" fill="white"/>
<path fill-rule="evenodd" clip-rule="evenodd" d="M77.9674 45.9413C74.935 45.9413 72.4672 43.4689 72.4672 40.4309C72.4672 37.3928 74.935 34.9205 77.9674 34.9205C80.9998 34.9205 83.4676 37.3928 83.4676 40.4309C83.4676 43.4689 80.9998 45.9413 77.9674 45.9413ZM77.9674 28.9026C71.623 28.9026 66.4604 34.0747 66.4604 40.4309C66.4604 46.787 71.623 51.9591 77.9674 51.9591C84.3118 51.9591 89.473 46.7884 89.473 40.4309C89.473 34.0747 84.3118 28.9026 77.9674 28.9026Z" fill="white"/>
<path fill-rule="evenodd" clip-rule="evenodd" d="M76.0222 19.8263H84.748V28.3504H90.7548V6.78784H84.748V15.3133H76.0222V6.78784H70.0155V28.3504H76.0222V19.8263Z" fill="white"/>
<path fill-rule="evenodd" clip-rule="evenodd" d="M21.0377 28.3504H27.0445V11.3049H32.6784V6.79187H15.4025V11.3049H21.0377V28.3504Z" fill="white"/>
<path fill-rule="evenodd" clip-rule="evenodd" d="M28.0291 46.6991H20.0193C22.1548 42.5568 23.0733 37.6607 23.4664 34.1748H28.0278V46.6991H28.0291ZM18.8846 29.6482C18.8846 29.7646 18.8104 40.9153 14.2759 46.7004H10.7694V51.2135H33.7536V29.6495L18.8846 29.6482Z" fill="white"/>
<path fill-rule="evenodd" clip-rule="evenodd" d="M54.8103 28.3504L59.1799 21.3095L63.5482 28.3504H69.5469L62.9309 17.5691L69.5469 6.78784H63.5482L59.1799 13.8288L54.8103 6.78784H48.8265L55.4276 17.5691L48.8265 28.3504H54.8103Z" fill="white"/>
<path fill-rule="evenodd" clip-rule="evenodd" d="M69.5468 29.6495H63.5293L54.8332 40.4308V29.6495H48.8265V34.1342H39.9305V38.1208H48.8265V42.6664H48.7914H39.8711V46.8032H48.7914H48.8265V51.2121H54.8332V40.4308L63.5293 51.2121H69.5468L60.944 40.4308L69.5468 29.6495Z" fill="white"/>
<path fill-rule="evenodd" clip-rule="evenodd" d="M48.3808 28.3504V23.8373H39.8711V19.8263H48.3808V15.3133H39.8711V11.305H48.3808V6.79189L33.8644 6.78918L33.8657 28.184V28.3504H48.3808Z" fill="white"/>
<path fill-rule="evenodd" clip-rule="evenodd" d="M99.1644 41.8219H96.8709V34.0909H99.1752C101.301 34.0963 103.461 35.8244 103.461 37.9557C103.46 40.0911 101.295 41.8219 99.1644 41.8219ZM101.127 29.636L90.8628 29.6603V51.2229H96.8695V46.335H100.688V46.3309C105.282 46.3309 109.458 42.5865 109.458 37.9841C109.458 33.3804 105.721 29.636 101.127 29.636Z" fill="white"/>
<path fill-rule="evenodd" clip-rule="evenodd" d="M117.141 12.0588C115.666 12.0588 114.464 10.8557 114.464 9.37663C114.464 7.89889 115.665 6.69585 117.141 6.69585C118.616 6.69585 119.817 7.89889 119.817 9.37663C119.819 10.8571 118.618 12.0588 117.141 12.0588ZM117.141 6.04224C115.304 6.04224 113.812 7.53892 113.812 9.37798C113.812 11.2184 115.306 12.7137 117.141 12.7137C118.977 12.7137 120.471 11.217 120.471 9.37798C120.471 7.53892 118.978 6.04224 117.141 6.04224Z" fill="white"/>
<path fill-rule="evenodd" clip-rule="evenodd" d="M117.124 9.17769H116.571V7.99631H117.124C117.563 7.99631 117.826 8.14111 117.826 8.56603V8.58633C117.828 8.98012 117.584 9.17769 117.124 9.17769ZM118.504 8.57144V8.55114C118.504 7.79468 117.936 7.46313 117.124 7.46313H115.883V11.1656H116.57V9.66892H117.009L117.975 11.1656H118.719L117.68 9.56472C118.142 9.44699 118.504 9.15063 118.504 8.57144Z" fill="white"/>
</g>
<defs>
<clipPath id="clip0_806_130">
<rect width="140" height="58" fill="white"/>
</clipPath>
</defs>
</svg>
