<svg width="180" height="75" viewBox="0 0 180 75" fill="none" xmlns="http://www.w3.org/2000/svg">
<g clip-path="url(#clip0_806_581)">
<path fill-rule="evenodd" clip-rule="evenodd" d="M100.244 45.1558C96.3449 45.1558 93.172 48.351 93.172 52.2813C93.172 56.2098 96.3449 59.4068 100.244 59.4068C104.142 59.4068 107.315 56.2098 107.315 52.2813C107.315 48.3528 104.142 45.1558 100.244 45.1558Z" fill="white"/>
<path fill-rule="evenodd" clip-rule="evenodd" d="M36.0375 44.1915H30.1728C29.6674 48.6992 28.4865 55.0303 25.7408 60.3867H36.0393V44.1915H36.0375Z" fill="white"/>
<path fill-rule="evenodd" clip-rule="evenodd" d="M127.511 44.083H124.548V54.0801H127.497C130.236 54.0801 133.022 51.842 133.022 49.0824C133.02 46.3246 130.245 44.0918 127.511 44.083Z" fill="white"/>
<path fill-rule="evenodd" clip-rule="evenodd" d="M132.926 15.5933C129.027 15.5933 125.854 18.7903 125.854 22.7188C125.854 26.6473 129.027 29.8443 132.926 29.8443C136.825 29.8443 139.998 26.6473 139.998 22.7188C139.998 18.7903 136.825 15.5933 132.926 15.5933Z" fill="white"/>
<path fill-rule="evenodd" clip-rule="evenodd" d="M0 0V75H152.309V59.2458H165.976V22.7292H180.002V0.00874942L0 0ZM62.7769 8.77741H70.4703L76.0867 17.8821L81.7031 8.77741H89.4156L80.9094 22.7187L89.4156 36.6601H81.7031L76.0867 27.5554L70.4703 36.6601H62.7769L71.264 22.7187L62.7769 8.77741ZM19.8032 8.78266H42.0151V14.6185H34.7697V36.6601H27.0468V14.6185H19.8014V8.78266H19.8032ZM43.3975 66.2226H13.8464V60.3867H18.3548C24.1865 52.906 24.2803 38.4869 24.2803 38.3364L43.3992 38.3399V66.2226H43.3975ZM43.5399 8.77916L62.2021 8.78266V14.6185H51.2611V19.8017H62.2021V25.6375H51.2611V30.8242H62.2021V36.6601H43.5416V36.4431L43.5399 8.77916ZM81.6805 66.2226L70.4999 52.2813V66.2226H62.7769V60.5197H62.7318H51.2628V55.1703H62.7318H62.7769V49.2942H51.3393V44.1391H62.7769V38.3399H70.4999V52.2813L81.6805 38.3399H89.4174L78.3565 52.2813L89.4174 66.2226H81.6805ZM100.244 67.1885C92.0866 67.1885 85.4491 60.5022 85.4491 52.2813C85.4491 44.0621 92.0866 37.374 100.244 37.374C108.401 37.374 115.038 44.0621 115.038 52.2813C115.037 60.5005 108.401 67.1885 100.244 67.1885ZM116.685 36.6601H108.962V25.6375H97.7429V36.6601H90.02V8.77741H97.7429V19.7999H108.962V8.77741H116.685V36.6601ZM129.458 59.9108V59.916H124.548V66.2383H116.825V38.3557L130.022 38.3242C135.929 38.3242 140.734 43.1661 140.734 49.1175C140.732 55.0688 135.364 59.9108 129.458 59.9108ZM132.926 37.626C124.769 37.626 118.131 30.9397 118.131 22.7187C118.131 14.4995 124.769 7.81148 132.926 7.81148C141.083 7.81148 147.721 14.4995 147.721 22.7187C147.721 30.9397 141.083 37.626 132.926 37.626ZM150.61 16.4402C148.249 16.4402 146.33 14.5048 146.33 12.1267C146.33 9.7486 148.25 7.81323 150.61 7.81323C152.971 7.81323 154.891 9.7486 154.891 12.1267C154.891 14.5048 152.972 16.4402 150.61 16.4402Z" fill="white"/>
<path fill-rule="evenodd" clip-rule="evenodd" d="M151.493 11.0768C151.493 10.5273 151.154 10.3401 150.59 10.3401H149.879V11.8677H150.59C151.182 11.8677 151.493 11.6123 151.493 11.1048V11.0768Z" fill="white"/>
<path fill-rule="evenodd" clip-rule="evenodd" d="M150.61 8.66016C148.714 8.66016 147.17 10.2158 147.17 12.1267C147.17 14.0393 148.714 15.5949 150.61 15.5949C152.507 15.5949 154.051 14.0393 154.051 12.1267C154.053 10.2158 152.509 8.66016 150.61 8.66016ZM151.685 14.4383L150.444 12.5029H149.879V14.4383H148.995V9.65059H150.591C151.635 9.65059 152.366 10.0793 152.366 11.0575V11.0837C152.366 11.8344 151.901 12.2159 151.31 12.3699L152.646 14.44H151.685V14.4383Z" fill="white"/>
</g>
<defs>
<clipPath id="clip0_806_581">
<rect width="180" height="75" fill="white"/>
</clipPath>
</defs>
</svg>
