<svg width="31" height="30" viewBox="0 0 31 30" fill="none" xmlns="http://www.w3.org/2000/svg">
<g clip-path="url(#clip0_806_636)">
<path d="M6.61013 11.8972L5.49627 15.7625H5.30571L4.19185 11.8972C4.00129 11.2431 3.40328 10.7928 2.71986 10.7928H0.048584V19.207H2.72314V14.2341H2.91372L4.44486 19.207H6.35714L7.88499 14.2341H8.07556V19.207H10.7501V10.7928H8.07884C7.3987 10.7928 6.80071 11.2431 6.61013 11.8972ZM21.4187 19.207H24.1097V16.7189H26.8173C28.2333 16.7189 29.4393 15.917 29.9057 14.7896H21.4187V19.207ZM16.6512 11.6803L14.7685 15.7658H14.578V10.7928H11.9034V19.207H14.1738C14.7718 19.207 15.3139 18.8586 15.5636 18.3196L17.4463 14.2374H17.637V19.207H20.3115V10.7928H18.0411C17.443 10.7928 16.901 11.1412 16.6512 11.6803Z" fill="white"/>
<path d="M27.0848 10.7928C27.857 10.7928 28.5568 11.0887 29.0858 11.5751C29.6772 12.1141 30.0485 12.8898 30.0485 13.7543C30.0485 13.9317 30.0288 14.1059 29.9992 14.2769H25.0313C23.349 14.2769 21.923 13.1725 21.4433 11.6474C21.4367 11.631 21.4334 11.6113 21.4268 11.5915C21.4137 11.5455 21.4038 11.4962 21.3907 11.4502C21.3414 11.2366 21.3086 11.0196 21.2954 10.7928H27.0848Z" fill="white"/>
</g>
<defs>
<clipPath id="clip0_806_636">
<rect width="30" height="30" fill="white" transform="translate(0.0487061)"/>
</clipPath>
</defs>
</svg>
