<svg width="36" height="37" viewBox="0 0 36 37" fill="none" xmlns="http://www.w3.org/2000/svg">
<path d="M31.8106 6.12509L30.107 4.42151C30.0466 4.3617 29.965 4.32814 29.88 4.32814C29.795 4.32814 29.7134 4.3617 29.653 4.42151L4.19185 29.8746C4.13203 29.9351 4.09847 30.0166 4.09847 30.1017C4.09847 30.1867 4.13203 30.2682 4.19185 30.3287L5.89542 32.0322C6.01997 32.1568 6.22489 32.1568 6.34944 32.0322L31.8066 6.57509C31.9352 6.45455 31.9352 6.24964 31.8106 6.12509ZM9.64408 15.6554C12.8343 15.6554 15.4298 13.0599 15.4298 9.86973C15.4298 6.67955 12.8343 4.08401 9.64408 4.08401C6.4539 4.08401 3.85837 6.67955 3.85837 9.86973C3.85837 13.0599 6.4539 15.6554 9.64408 15.6554ZM9.64408 6.97687C11.2392 6.97687 12.5369 8.27464 12.5369 9.86973C12.5369 11.4648 11.2392 12.7626 9.64408 12.7626C8.04899 12.7626 6.75122 11.4648 6.75122 9.86973C6.75122 8.27464 8.04899 6.97687 9.64408 6.97687ZM26.3584 20.7983C23.1682 20.7983 20.5727 23.3938 20.5727 26.584C20.5727 29.7742 23.1682 32.3697 26.3584 32.3697C29.5485 32.3697 32.1441 29.7742 32.1441 26.584C32.1441 23.3938 29.5485 20.7983 26.3584 20.7983ZM26.3584 29.4769C24.7633 29.4769 23.4655 28.1791 23.4655 26.584C23.4655 24.9889 24.7633 23.6912 26.3584 23.6912C27.9535 23.6912 29.2512 24.9889 29.2512 26.584C29.2512 28.1791 27.9535 29.4769 26.3584 29.4769Z" fill="#7D8899"/>
</svg>
