<svg width="36" height="36" viewBox="0 0 36 36" xmlns="http://www.w3.org/2000/svg">
<path d="M33.1065 29.2512H5.46366V4.17977C5.46366 4.00298 5.31902 3.85834 5.14223 3.85834H2.89223C2.71544 3.85834 2.5708 4.00298 2.5708 4.17977V31.8226C2.5708 31.9994 2.71544 32.1441 2.89223 32.1441H33.1065C33.2833 32.1441 33.428 31.9994 33.428 31.8226V29.5726C33.428 29.3958 33.2833 29.2512 33.1065 29.2512Z" />
<path d="M10.1686 9.57587C10.0401 9.45132 9.83916 9.45132 9.71461 9.57587L8.12755 11.171C8.06774 11.2314 8.03418 11.313 8.03418 11.398C8.03418 11.483 8.06774 11.5646 8.12755 11.625L15.5124 18.9656C15.5728 19.0254 15.6544 19.059 15.7394 19.059C15.8244 19.059 15.906 19.0254 15.9664 18.9656L21.0851 13.8147L30.3262 23.0518C30.3866 23.1116 30.4682 23.1451 30.5532 23.1451C30.6382 23.1451 30.7198 23.1116 30.7802 23.0518L32.3713 21.4607C32.4959 21.3361 32.4959 21.1312 32.3713 21.0067L21.3061 9.94551C21.1816 9.82096 20.9767 9.82096 20.8521 9.94551L15.7253 15.1044L10.1686 9.57587Z"/>
</svg>
