<svg width="36" height="37" viewBox="0 0 36 37" xmlns="http://www.w3.org/2000/svg">
<path d="M33.9756 32.0002L23.5412 21.5659C25.1604 19.4726 26.0363 16.9132 26.0363 14.2212C26.0363 10.9989 24.7787 7.97747 22.5046 5.69934C20.2305 3.42122 17.2011 2.16765 13.9828 2.16765C10.7645 2.16765 7.73499 3.42524 5.46088 5.69934C3.18276 7.97345 1.92918 10.9989 1.92918 14.2212C1.92918 17.4395 3.18677 20.469 5.46088 22.7431C7.73499 25.0212 10.7604 26.2748 13.9828 26.2748C16.6747 26.2748 19.2301 25.3989 21.3234 23.7837L31.7578 34.2141C31.7884 34.2447 31.8247 34.269 31.8647 34.2855C31.9046 34.3021 31.9475 34.3106 31.9908 34.3106C32.0341 34.3106 32.0769 34.3021 32.1169 34.2855C32.1569 34.269 32.1932 34.2447 32.2238 34.2141L33.9756 32.4663C34.0062 32.4357 34.0305 32.3994 34.0471 32.3594C34.0637 32.3194 34.0722 32.2766 34.0722 32.2333C34.0722 32.19 34.0637 32.1471 34.0471 32.1071C34.0305 32.0672 34.0062 32.0308 33.9756 32.0002ZM20.347 20.5855C18.6435 22.2851 16.3854 23.2212 13.9828 23.2212C11.5801 23.2212 9.32204 22.2851 7.61847 20.5855C5.91892 18.8819 4.98276 16.6239 4.98276 14.2212C4.98276 11.8185 5.91892 9.55649 7.61847 7.85693C9.32204 6.15738 11.5801 5.22122 13.9828 5.22122C16.3854 5.22122 18.6475 6.15336 20.347 7.85693C22.0466 9.56051 22.9828 11.8185 22.9828 14.2212C22.9828 16.6239 22.0466 18.886 20.347 20.5855Z"/>
</svg>
