<svg width="36" height="37" viewBox="0 0 36 37" xmlns="http://www.w3.org/2000/svg">
<path d="M32.4474 24.9104H11.5119L12.563 22.7693L30.0287 22.7377C30.6193 22.7377 31.1255 22.3158 31.231 21.7322L33.6498 8.19357C33.713 7.83849 33.6181 7.47286 33.3861 7.19513C33.2714 7.05844 33.1284 6.94834 32.9669 6.87245C32.8054 6.79657 32.6293 6.75672 32.4509 6.75568L10.2322 6.68185L10.0423 5.78888C9.92281 5.21935 9.40952 4.8045 8.82593 4.8045H3.39429C3.06515 4.8045 2.7495 4.93525 2.51676 5.16799C2.28402 5.40072 2.15327 5.71638 2.15327 6.04552C2.15327 6.37466 2.28402 6.69031 2.51676 6.92305C2.7495 7.15579 3.06515 7.28654 3.39429 7.28654H7.82046L8.65015 11.2311L10.6927 21.1205L8.06304 25.4131C7.92648 25.5974 7.84422 25.8163 7.82558 26.0449C7.80694 26.2736 7.85266 26.5028 7.95757 26.7068C8.16851 27.1252 8.5939 27.3889 9.06499 27.3889H11.2728C10.8021 28.014 10.5479 28.7755 10.5486 29.558C10.5486 31.5479 12.1658 33.1651 14.1556 33.1651C16.1455 33.1651 17.7626 31.5479 17.7626 29.558C17.7626 28.774 17.5025 28.0111 17.0384 27.3889H22.7021C22.2314 28.014 21.9772 28.7755 21.9779 29.558C21.9779 31.5479 23.5951 33.1651 25.5849 33.1651C27.5748 33.1651 29.1919 31.5479 29.1919 29.558C29.1919 28.774 28.9318 28.0111 28.4677 27.3889H32.4509C33.133 27.3889 33.6919 26.8334 33.6919 26.1479C33.6899 25.8191 33.5579 25.5044 33.3248 25.2726C33.0916 25.0408 32.7762 24.9105 32.4474 24.9104ZM10.749 9.12872L30.9919 9.19552L29.0091 20.2979L13.108 20.326L10.749 9.12872ZM14.1556 30.669C13.5439 30.669 13.0447 30.1697 13.0447 29.558C13.0447 28.9463 13.5439 28.4471 14.1556 28.4471C14.7673 28.4471 15.2666 28.9463 15.2666 29.558C15.2666 29.8527 15.1495 30.1352 14.9412 30.3436C14.7328 30.5519 14.4503 30.669 14.1556 30.669ZM25.5849 30.669C24.9732 30.669 24.474 30.1697 24.474 29.558C24.474 28.9463 24.9732 28.4471 25.5849 28.4471C26.1966 28.4471 26.6959 28.9463 26.6959 29.558C26.6959 29.8527 26.5788 30.1352 26.3705 30.3436C26.1621 30.5519 25.8796 30.669 25.5849 30.669Z"/>
</svg>
