<svg width="36" height="37" viewBox="0 0 36 37" xmlns="http://www.w3.org/2000/svg">
<path d="M31.9208 28.3382C31.1628 26.5429 30.0629 24.9122 28.6824 23.5369C27.306 22.1576 25.6755 21.0579 23.881 20.2985C23.865 20.2905 23.8489 20.2865 23.8328 20.2784C26.3359 18.4704 27.9632 15.5253 27.9632 12.2025C27.9632 6.69806 23.5033 2.23824 17.9989 2.23824C12.4944 2.23824 8.03459 6.69806 8.03459 12.2025C8.03459 15.5253 9.66182 18.4704 12.1649 20.2824C12.1489 20.2905 12.1328 20.2945 12.1167 20.3025C10.3167 21.0619 8.70156 22.1507 7.3154 23.5409C5.9361 24.9173 4.83639 26.5478 4.077 28.3423C3.33097 30.0991 2.92863 31.9826 2.89173 33.8909C2.89066 33.9338 2.89818 33.9765 2.91386 34.0164C2.92953 34.0563 2.95303 34.0927 2.98299 34.1234C3.01294 34.1541 3.04874 34.1785 3.08827 34.1952C3.1278 34.2118 3.17027 34.2204 3.21316 34.2204H5.62388C5.80066 34.2204 5.94129 34.0798 5.94531 33.907C6.02566 30.8052 7.2712 27.9003 9.47298 25.6985C11.7511 23.4204 14.7766 22.1668 17.9989 22.1668C21.2212 22.1668 24.2466 23.4204 26.5248 25.6985C28.7266 27.9003 29.9721 30.8052 30.0524 33.907C30.0565 34.0838 30.1971 34.2204 30.3739 34.2204H32.7846C32.8275 34.2204 32.87 34.2118 32.9095 34.1952C32.949 34.1785 32.9848 34.1541 33.0148 34.1234C33.0447 34.0927 33.0682 34.0563 33.0839 34.0164C33.0996 33.9765 33.1071 33.9338 33.106 33.8909C33.0658 31.9704 32.6681 30.1021 31.9208 28.3382ZM17.9989 19.1132C16.1547 19.1132 14.419 18.394 13.1132 17.0882C11.8074 15.7824 11.0882 14.0467 11.0882 12.2025C11.0882 10.3583 11.8074 8.62261 13.1132 7.31681C14.419 6.011 16.1547 5.29181 17.9989 5.29181C19.8431 5.29181 21.5788 6.011 22.8846 7.31681C24.1904 8.62261 24.9096 10.3583 24.9096 12.2025C24.9096 14.0467 24.1904 15.7824 22.8846 17.0882C21.5788 18.394 19.8431 19.1132 17.9989 19.1132Z"/>
</svg>
