<svg width="36" height="37" viewBox="0 0 36 37" fill="none" xmlns="http://www.w3.org/2000/svg">
<path d="M23.0219 15.4636H18.2808V10.0797C18.2808 9.90287 18.1362 9.75823 17.9594 9.75823H15.5487C15.3719 9.75823 15.2272 9.90287 15.2272 10.0797V15.4636H10.4862C10.3094 15.4636 10.1647 15.6082 10.1647 15.785V18.1957C10.1647 18.3725 10.3094 18.5172 10.4862 18.5172H15.2272V23.9011C15.2272 24.0779 15.3719 24.2225 15.5487 24.2225H17.9594C18.1362 24.2225 18.2808 24.0779 18.2808 23.9011V18.5172H23.0219C23.1987 18.5172 23.3433 18.3725 23.3433 18.1957V15.785C23.3433 15.6082 23.1987 15.4636 23.0219 15.4636ZM34.4326 32.4993L28.5665 26.6332C33.4723 20.6506 33.1308 11.7872 27.5219 6.18233C21.5755 0.231886 11.9165 0.231886 5.94599 6.18233C-0.00445735 12.1529 -0.00445735 21.8118 5.94599 27.7582C11.5509 33.3672 20.4143 33.7087 26.3969 28.8029L32.263 34.6689C32.3915 34.7814 32.5964 34.7814 32.7049 34.6689L34.4326 32.9413C34.5451 32.8328 34.5451 32.6279 34.4326 32.4993ZM25.3924 25.6288C20.6192 30.398 12.8888 30.398 8.11563 25.6288C3.34644 20.8555 3.34644 13.1252 8.11563 8.35198C12.8888 3.58278 20.6192 3.58278 25.3924 8.35198C30.1616 13.1252 30.1616 20.8555 25.3924 25.6288Z" fill="#7D8899"/>
</svg>
