<?xml version="1.0" encoding="UTF-8"?>
<!DOCTYPE svg PUBLIC "-//W3C//DTD SVG 1.1//EN" "http://www.w3.org/Graphics/SVG/1.1/DTD/svg11.dtd">
<svg xmlns="http://www.w3.org/2000/svg" xmlns:xlink="http://www.w3.org/1999/xlink">
	<defs>
		<clipPath id="arrow-crumbs-a">
			<path fill="#fff" d="M0 0h10v10H0z"/>
		</clipPath>

		<clipPath id="logo-footer-a">
			<path fill="#fff" d="M0 0h180v75H0z"/>
		</clipPath>

		<clipPath id="logo-a">
			<path fill="#fff" d="M0 0h140v58H0z"/>
		</clipPath>

		<clipPath id="mastercard-a">
			<path fill="#fff" d="M0 0h30v18.549H0z" transform="translate(.049)"/>
		</clipPath>

		<clipPath id="mir-a">
			<path fill="#fff" d="M0 0h30v30H0z" transform="translate(.049)"/>
		</clipPath>

		<clipPath id="visa-a">
			<path fill="#fff" d="M0 0h30v30H0z" transform="translate(.049)"/>
		</clipPath>
	</defs>
<symbol id="arrow-crumbs" viewBox="0 0 10 10">
	<g clip-path="url(#arrow-crumbs-a)">
		<path fill="#C5CAD3" fill-rule="evenodd" d="m7.876 5-5 5-.283-.283a1.6 1.6 0 0 1 0-2.263L5.047 5 2.593 2.546a1.6 1.6 0 0 1 0-2.263L2.876 0l5 5Z" clip-rule="evenodd"/>
	</g>

</symbol>
<symbol id="arrow-slider-hover" viewBox="0 0 37 37">
	<path d="M33.276 16.707H9.768l14.07-12.215a.32.32 0 0 0-.209-.562h-3.556a.645.645 0 0 0-.422.157L4.468 17.26a1.283 1.283 0 0 0 0 1.94L19.74 32.458c.06.052.132.08.209.08h3.676a.32.32 0 0 0 .209-.563L9.768 19.76h23.508a.322.322 0 0 0 .321-.321v-2.411a.322.322 0 0 0-.321-.321Z"/>
</symbol>
<symbol id="arrow-slider" viewBox="0 0 37 37">
	<path d="M33.276 16.707H9.768l14.07-12.215a.32.32 0 0 0-.209-.562h-3.556a.645.645 0 0 0-.422.157L4.468 17.26a1.283 1.283 0 0 0 0 1.94L19.74 32.458c.06.052.132.08.209.08h3.676a.32.32 0 0 0 .209-.563L9.768 19.76h23.508a.322.322 0 0 0 .321-.321v-2.411a.322.322 0 0 0-.321-.321Z"/>
</symbol>
<symbol id="arrow" viewBox="0 0 6 10">
	<path fill-rule="evenodd" d="m.124 5 5-5 .283.283a1.6 1.6 0 0 1 0 2.263L2.953 5l2.454 2.454a1.6 1.6 0 0 1 0 2.263L5.124 10l-5-5Z" clip-rule="evenodd"/>
</symbol>
<symbol id="bag" viewBox="0 0 36 36">
	<path d="M30.858 9.97h-5.464v-.644a7.394 7.394 0 0 0-14.786 0v.643H5.144c-.711 0-1.286.575-1.286 1.286V32.79c0 .71.575 1.285 1.286 1.285h25.714c.712 0 1.286-.574 1.286-1.285V11.255c0-.711-.574-1.286-1.286-1.286Zm-17.357-.644c0-2.487 2.013-4.5 4.5-4.5s4.5 2.013 4.5 4.5v.643h-9v-.643Zm15.75 21.857h-22.5V12.862h3.857v3.536c0 .177.145.321.322.321h2.25a.322.322 0 0 0 .321-.321v-3.536h9v3.536c0 .177.145.321.322.321h2.25a.322.322 0 0 0 .321-.321v-3.536h3.857v18.322Z"/>
</symbol>
<symbol id="bag2" viewBox="0 0 36 36">
	<path fill="#fff" d="M29.25 10.969h-4.781v-.563a6.47 6.47 0 0 0-12.938 0v.563H6.75c-.622 0-1.125.503-1.125 1.125v18.843c0 .623.503 1.125 1.125 1.125h22.5c.622 0 1.125-.502 1.125-1.124V12.093c0-.622-.503-1.125-1.125-1.125Zm-7.313 0h-7.875v-.563A3.935 3.935 0 0 1 18 6.47a3.935 3.935 0 0 1 3.938 3.937v.563Z"/>
</symbol>
<symbol id="bonus" viewBox="0 0 36 36">
	<path d="M32.786 9.889h-5.93a5.53 5.53 0 0 0 .868-2.973 5.55 5.55 0 0 0-5.545-5.545c-1.663 0-3.162.74-4.178 1.904a5.538 5.538 0 0 0-4.179-1.904 5.55 5.55 0 0 0-5.545 5.545c0 1.092.318 2.113.868 2.973h-5.93c-.711 0-1.286.574-1.286 1.286v8.035c0 .177.145.322.322.322h1.607v13.821c0 .711.574 1.286 1.285 1.286h25.715c.71 0 1.286-.575 1.286-1.286V19.532h1.607a.322.322 0 0 0 .321-.322v-8.036c0-.71-.575-1.285-1.286-1.285Zm-13.42-2.973a2.816 2.816 0 0 1 2.813-2.813 2.816 2.816 0 0 1 2.813 2.813 2.816 2.816 0 0 1-2.813 2.812h-2.812V6.916Zm-5.544-2.813a2.816 2.816 0 0 1 2.813 2.813v2.812h-2.813a2.816 2.816 0 0 1-2.812-2.812 2.816 2.816 0 0 1 2.812-2.813ZM4.662 16.8v-4.178h11.973v4.178H4.66Zm1.928 2.733h10.045v12.375H6.59V19.532ZM29.41 31.907H19.367V19.532H29.41v12.375Zm1.929-15.108H19.367v-4.178H31.34v4.178Z"/>
</symbol>
<symbol id="car" viewBox="0 0 36 36">
	<path fill="#fff" d="m33.715 14.534-.834-1.456a.281.281 0 0 0-.383-.102l-1.782 1.04-2.753-7.6a2.247 2.247 0 0 0-2.14-1.561H10.588c-1.22 0-2.303.787-2.679 1.951L5.287 14.02l-1.786-1.04a.281.281 0 0 0-.383.101l-.833 1.453a.277.277 0 0 0 .102.38L4.51 16.15 4 17.557a1.003 1.003 0 0 0-.063.352v12.24c0 .553.415 1 .925 1h2.376c.433 0 .81-.328.9-.785l.271-1.325H27.59l.271 1.325c.095.457.468.784.9.784h2.377c.51 0 .924-.446.924-.998V17.909c0-.12-.02-.24-.063-.352l-.51-1.406 2.12-1.238a.281.281 0 0 0 .106-.38ZM9.28 21.831a1.406 1.406 0 1 1 0-2.812 1.406 1.406 0 0 1 0 2.812Zm13.64 2.637a.282.282 0 0 1-.28.28h-9.282a.282.282 0 0 1-.281-.28v-2.954c0-.154.127-.28.281-.28h1.406c.155 0 .282.126.282.28v1.266h5.906v-1.265c0-.155.127-.282.281-.282h1.406c.155 0 .282.127.282.281v2.954Zm3.797-2.637a1.406 1.406 0 1 1 0-2.812 1.406 1.406 0 0 1 0 2.812ZM7.734 14.695l2.556-7.028.018-.045.014-.046a.28.28 0 0 1 .267-.193h15.033l2.65 7.312H7.734Z"/>
</symbol>
<symbol id="check" viewBox="0 0 12 8">
	<path fill="#fff" d="m5.105 7.604-.017.018-4.4-4.4L2.12 1.789l2.984 2.985L9.88 0l1.433 1.433-6.189 6.189-.018-.018Z"/>
</symbol>
<symbol id="close-large" viewBox="0 0 36 37">
	<path d="M20.08 18.835 30.629 6.263a.32.32 0 0 0-.246-.526h-3.206a.655.655 0 0 0-.494.229l-8.699 10.37-8.698-10.37a.642.642 0 0 0-.495-.229H5.584a.32.32 0 0 0-.245.526l10.547 12.572L5.339 31.407a.32.32 0 0 0 .245.526H8.79c.19 0 .37-.084.495-.229l8.698-10.37 8.699 10.37c.12.145.301.23.494.23h3.206a.32.32 0 0 0 .245-.527L20.082 18.835Z"/>
</symbol>
<symbol id="close" viewBox="0 0 24 24">
	<path fill-rule="evenodd" d="M9.545 8.19a1.6 1.6 0 0 0-2.249.014L7 8.5l3.586 3.5L7 15.5l.296.296a1.6 1.6 0 0 0 2.25.014L12 13.414l2.454 2.396a1.6 1.6 0 0 0 2.25-.014L17 15.5 13.414 12 17 8.5l-.297-.296a1.6 1.6 0 0 0-2.248-.014L12 10.586 9.545 8.19Z" clip-rule="evenodd"/>
</symbol>
<symbol id="compare" viewBox="0 0 36 37">
	<path fill="#7D8899" d="M6.67 33.987V14.058a.322.322 0 0 0-.321-.321h-2.25a.322.322 0 0 0-.322.321v19.929c0 .176.145.321.322.321h2.25a.322.322 0 0 0 .321-.321Zm17.036 0V14.058a.322.322 0 0 0-.322-.321h-2.25a.322.322 0 0 0-.32.321v19.929c0 .176.144.321.32.321h2.25a.322.322 0 0 0 .322-.321Zm5.625-31.5v31.5c0 .176.145.321.321.321h2.25a.322.322 0 0 0 .322-.321v-31.5a.322.322 0 0 0-.322-.322h-2.25a.322.322 0 0 0-.321.322Zm-17.036 0v31.5c0 .176.145.321.322.321h2.25a.322.322 0 0 0 .321-.321v-31.5a.322.322 0 0 0-.321-.322h-2.25a.322.322 0 0 0-.322.322Z"/>
</symbol>
<symbol id="compare2" viewBox="0 0 36 36">
	<path fill="#fff" d="M30.938 3.938H5.063c-.623 0-1.125.502-1.125 1.124v25.875c0 .623.502 1.125 1.124 1.125h25.875c.623 0 1.125-.502 1.125-1.124V5.063c0-.623-.502-1.125-1.124-1.125Zm-18 22.218a.282.282 0 0 1-.282.282H9.844a.282.282 0 0 1-.281-.282V9.844c0-.155.126-.281.28-.281h2.813c.155 0 .281.126.281.28v16.313Zm6.75-9.843a.282.282 0 0 1-.282.28h-2.812a.282.282 0 0 1-.282-.28v-6.47c0-.154.127-.28.282-.28h2.812c.155 0 .282.126.282.28v6.47Zm6.75 2.53a.282.282 0 0 1-.282.282h-2.812a.282.282 0 0 1-.282-.281v-9c0-.155.127-.281.282-.281h2.812c.155 0 .282.126.282.28v9Z"/>
</symbol>
<symbol id="footer-painter" viewBox="0 0 37 36">
	<path fill="#fff" d="M30.198 6.75h-1.969V4.219a.842.842 0 0 0-.844-.844H6.573a.842.842 0 0 0-.844.844v9.562c0 .468.376.844.844.844h20.812a.842.842 0 0 0 .844-.844V9h1.125v7.031h-12.34c-.777 0-1.406.63-1.406 1.407v4.78h-1.547a.282.282 0 0 0-.281.282v8.016c0 .038.007.077.021.109a.7.7 0 0 0-.021.172 2.953 2.953 0 1 0 5.906 0 .7.7 0 0 0-.02-.172.286.286 0 0 0 .02-.11V22.5a.282.282 0 0 0-.281-.281h-1.547V18.28h12.34c.777 0 1.406-.629 1.406-1.406V8.156c0-.777-.63-1.406-1.406-1.406Z"/>
</symbol>
<symbol id="footer-shopping" viewBox="0 0 36 36">
	<path fill="#fff" d="M29.25 10.969h-4.781v-.563a6.47 6.47 0 0 0-12.938 0v.563H6.75c-.622 0-1.125.503-1.125 1.125v18.843c0 .623.503 1.125 1.125 1.125h22.5c.622 0 1.125-.502 1.125-1.124V12.093c0-.622-.503-1.125-1.125-1.125Zm-7.313 0h-7.875v-.563A3.935 3.935 0 0 1 18 6.47a3.935 3.935 0 0 1 3.938 3.937v.563Z"/>
</symbol>
<symbol id="footer-tile" viewBox="0 0 37 36">
	<path fill="#fff" d="M30.708 5.063H20.021a.564.564 0 0 0-.563.562v10.688c0 .309.254.562.563.562h10.687c.31 0 .563-.253.563-.563V5.626a.564.564 0 0 0-.563-.563Zm0 14.062H20.021a.564.564 0 0 0-.563.563v10.687c0 .31.254.563.563.563h10.687c.31 0 .563-.254.563-.563V19.687a.564.564 0 0 0-.563-.562ZM16.646 5.062H5.958a.564.564 0 0 0-.562.563v10.688c0 .309.253.562.562.562h10.688c.31 0 .562-.253.562-.563V5.626a.564.564 0 0 0-.562-.563Zm0 14.063H5.958a.564.564 0 0 0-.562.563v10.687c0 .31.253.563.562.563h10.688c.31 0 .562-.254.562-.563V19.687a.564.564 0 0 0-.562-.562Z"/>
</symbol>
<symbol id="gift" viewBox="0 0 36 36">
	<path fill="#fff" d="M5.625 31.43c0 .622.503 1.125 1.125 1.125h10.055v-13.22H5.625V31.43Zm13.57 1.125H29.25c.622 0 1.125-.503 1.125-1.125V19.336h-11.18v13.219Zm11.742-21.657h-5.189c.479-.752.76-1.645.76-2.601a4.857 4.857 0 0 0-4.852-4.852A4.846 4.846 0 0 0 18 5.112a4.846 4.846 0 0 0-3.656-1.667 4.857 4.857 0 0 0-4.852 4.852c0 .956.278 1.85.76 2.601h-5.19c-.622 0-1.125.503-1.125 1.125v4.922h12.868v-6.047h2.39v6.047h12.867v-4.922c0-.622-.502-1.125-1.124-1.125Zm-14.132-.14h-2.461a2.464 2.464 0 0 1-2.461-2.461 2.464 2.464 0 0 1 2.46-2.461 2.464 2.464 0 0 1 2.462 2.46v2.462Zm4.851 0h-2.46V8.297a2.464 2.464 0 0 1 2.46-2.461 2.464 2.464 0 0 1 2.461 2.46 2.464 2.464 0 0 1-2.46 2.462Z"/>
</symbol>
<symbol id="heart" viewBox="0 0 36 37">
	<path fill="#7D8899" d="M32.45 10.204a9.141 9.141 0 0 0-2.001-2.91 9.328 9.328 0 0 0-6.553-2.665A9.39 9.39 0 0 0 18 6.706a9.39 9.39 0 0 0-5.896-2.078c-1.248 0-2.457.24-3.6.714a9.276 9.276 0 0 0-2.953 1.952 9.086 9.086 0 0 0-2.739 6.493c0 1.17.24 2.39.714 3.632.397 1.037.967 2.113 1.695 3.199 1.153 1.719 2.738 3.512 4.707 5.33 3.263 3.012 6.494 5.094 6.63 5.178l.834.534c.369.236.843.236 1.213 0l.833-.534c.137-.088 3.364-2.166 6.63-5.178 1.97-1.818 3.555-3.611 4.708-5.33.727-1.086 1.3-2.162 1.694-3.2.475-1.24.714-2.46.714-3.631a8.951 8.951 0 0 0-.735-3.583ZM18 28.88S5.484 20.86 5.484 13.787c0-3.583 2.964-6.486 6.62-6.486 2.57 0 4.8 1.434 5.896 3.53 1.097-2.096 3.326-3.53 5.896-3.53 3.656 0 6.62 2.903 6.62 6.486C30.516 20.86 18 28.879 18 28.879Z"/>
</symbol>
<symbol id="logo-footer" viewBox="0 0 180 75">
	<g fill="#fff" fill-rule="evenodd" clip-path="url(#logo-footer-a)" clip-rule="evenodd">
		<path d="M100.244 45.156c-3.9 0-7.072 3.195-7.072 7.125 0 3.929 3.173 7.126 7.072 7.126 3.898 0 7.071-3.197 7.071-7.126 0-3.928-3.173-7.125-7.071-7.125ZM36.038 44.191h-5.865c-.506 4.508-1.686 10.84-4.432 16.196h10.298V44.19h-.002ZM127.511 44.083h-2.963v9.997h2.949c2.739 0 5.525-2.238 5.525-4.998-.002-2.757-2.777-4.99-5.511-4.999ZM132.926 15.593c-3.899 0-7.072 3.197-7.072 7.126 0 3.928 3.173 7.125 7.072 7.125s7.072-3.197 7.072-7.125c0-3.929-3.173-7.126-7.072-7.126Z"/>
		<path d="M0 0v75h152.309V59.246h13.667V22.729h14.026V.01L0 0Zm62.777 8.777h7.693l5.617 9.105 5.616-9.105h7.713L80.909 22.72l8.507 13.941h-7.713l-5.616-9.105-5.617 9.105h-7.693l8.487-13.941-8.487-13.942Zm-42.974.006h22.212v5.835H34.77V36.66h-7.723V14.62H19.8V8.782h.002Zm23.595 57.44H13.846v-5.836h4.509c5.831-7.481 5.925-21.9 5.925-22.05l19.12.003v27.883h-.002Zm.142-57.444 18.662.004v5.835h-10.94v5.184h10.94v5.835h-10.94v5.187h10.94v5.836h-18.66v-.217L43.54 8.78Zm38.14 57.444L70.5 52.28v13.942h-7.723V60.52H51.262v-5.35h11.515v-5.876H51.339V44.14h11.438v-5.8H70.5v13.942L81.68 38.34h7.737L78.357 52.28l11.06 13.942H81.68Zm18.564.966c-8.157 0-14.795-6.687-14.795-14.908 0-8.219 6.638-14.907 14.795-14.907s14.794 6.688 14.794 14.907c-.001 8.22-6.637 14.908-14.794 14.908Zm16.441-30.529h-7.723V25.638h-11.22V36.66H90.02V8.777h7.723V19.8h11.219V8.777h7.723V36.66Zm12.773 23.25v.006h-4.91v6.322h-7.723V38.356l13.197-.032c5.907 0 10.712 4.842 10.712 10.794-.002 5.95-5.37 10.793-11.276 10.793Zm3.468-22.284c-8.157 0-14.795-6.686-14.795-14.907 0-8.22 6.638-14.908 14.795-14.908s14.795 6.688 14.795 14.908c0 8.22-6.638 14.907-14.795 14.907ZM150.61 16.44c-2.361 0-4.28-1.935-4.28-4.313 0-2.378 1.92-4.314 4.28-4.314 2.361 0 4.281 1.936 4.281 4.314s-1.919 4.313-4.281 4.313Z"/>
		<path d="M151.493 11.077c0-.55-.339-.737-.903-.737h-.711v1.528h.711c.592 0 .903-.256.903-.763v-.028Z"/>
		<path d="M150.61 8.66c-1.896 0-3.44 1.556-3.44 3.467 0 1.912 1.544 3.468 3.44 3.468 1.897 0 3.441-1.556 3.441-3.468.002-1.911-1.542-3.467-3.441-3.467Zm1.075 5.778-1.241-1.935h-.565v1.935h-.884V9.651h1.596c1.044 0 1.775.428 1.775 1.406v.027c0 .75-.465 1.132-1.056 1.286l1.336 2.07h-.961v-.002Z"/>
	</g>

</symbol>
<symbol id="logo" viewBox="0 0 140 58">
	<g fill-rule="evenodd" clip-path="url(#logo-a)" clip-rule="evenodd">
		<path fill="#312783" d="M140 .007 0 0v58h118.462V45.818h10.631v-28.24H140V.006Z"/>
		<path fill="#fff" d="M103.387 23.08c-3.033 0-5.5-2.473-5.5-5.51 0-3.039 2.467-5.511 5.5-5.511 3.032 0 5.5 2.472 5.5 5.51 0 3.04-2.468 5.51-5.5 5.51Zm0-17.038c-6.345 0-11.507 5.172-11.507 11.528 0 6.357 5.162 11.529 11.507 11.529 6.344 0 11.507-5.17 11.507-11.529 0-6.357-5.163-11.528-11.507-11.528ZM77.967 45.941c-3.032 0-5.5-2.472-5.5-5.51s2.468-5.51 5.5-5.51c3.033 0 5.5 2.472 5.5 5.51s-2.467 5.51-5.5 5.51Zm0-17.038c-6.344 0-11.507 5.172-11.507 11.528 0 6.356 5.163 11.528 11.507 11.528 6.345 0 11.506-5.17 11.506-11.528 0-6.356-5.161-11.528-11.506-11.528ZM76.022 19.826h8.726v8.524h6.007V6.788h-6.007v8.525h-8.726V6.788h-6.007V28.35h6.007v-8.524ZM21.038 28.35h6.006V11.305h5.634V6.792H15.403v4.513h5.635V28.35ZM28.03 46.7h-8.01c2.135-4.143 3.053-9.04 3.446-12.525h4.562v12.524h.001Zm-9.145-17.052c0 .117-.075 11.267-4.61 17.052H10.77v4.514h22.985V29.65l-14.87-.002ZM54.81 28.35l4.37-7.04 4.368 7.04h5.999L62.93 17.57l6.616-10.782h-5.999l-4.368 7.04-4.37-7.04h-5.983l6.6 10.781-6.6 10.781h5.983Z"/>
		<path fill="#fff" d="M69.547 29.65h-6.018l-8.696 10.78V29.65h-6.006v4.484H39.93v3.987h8.896v4.545H39.87v4.137h8.956v4.41h6.006V40.43l8.696 10.781h6.018l-8.603-10.781 8.603-10.781ZM48.38 28.35v-4.513h-8.509v-4.01h8.51v-4.514h-8.51v-4.008h8.51V6.792l-14.517-.003.002 21.395v.166H48.38ZM99.164 41.822h-2.293V34.09h2.304c2.126.005 4.286 1.733 4.286 3.865-.001 2.135-2.166 3.866-4.297 3.866Zm1.963-12.186-10.264.024v21.563h6.007v-4.888h3.818v-.004c4.594 0 8.77-3.745 8.77-8.347 0-4.604-3.737-8.348-8.331-8.348ZM117.141 12.059a2.682 2.682 0 0 1 0-5.363 2.682 2.682 0 0 1 0 5.363Zm0-6.017a3.335 3.335 0 0 0 0 6.672 3.337 3.337 0 0 0 0-6.672Z"/>
		<path fill="#fff" d="M117.124 9.178h-.553V7.996h.553c.439 0 .702.145.702.57v.02c.002.394-.242.592-.702.592Zm1.38-.607v-.02c0-.756-.568-1.088-1.38-1.088h-1.241v3.703h.687V9.669h.439l.966 1.497h.744l-1.039-1.601c.462-.118.824-.414.824-.994Z"/>
	</g>

</symbol>
<symbol id="mastercard" viewBox="0 0 31 19">
	<g fill="#fff" clip-path="url(#mastercard-a)">
		<path d="M11.214 9.275A9.495 9.495 0 0 1 14.816 1.8 9.294 9.294 0 0 0 9.323 0C4.206 0 .05 4.157.05 9.275c0 5.117 4.157 9.274 9.274 9.274a9.294 9.294 0 0 0 5.493-1.8 9.495 9.495 0 0 1-3.602-7.474ZM20.774 0a9.294 9.294 0 0 0-5.493 1.8c2.281 1.832 3.602 4.548 3.602 7.475a9.495 9.495 0 0 1-3.602 7.473 9.26 9.26 0 0 0 5.493 1.801c5.118 0 9.275-4.157 9.275-9.274A9.271 9.271 0 0 0 20.774 0Z"/>
		<path d="M11.515 9.275a9.25 9.25 0 0 0 3.541 7.293 9.25 9.25 0 0 0 3.542-7.293 9.25 9.25 0 0 0-3.542-7.294c-2.16 1.71-3.541 4.337-3.541 7.294Z"/>
	</g>

</symbol>
<symbol id="menu" viewBox="0 0 36 37">
	<path fill="#7D8899" d="M33.75 4.084H2.25a.322.322 0 0 0-.322.321v2.572c0 .177.145.321.322.321h31.5a.322.322 0 0 0 .321-.321V4.405a.322.322 0 0 0-.322-.321Zm0 25.071H2.25a.322.322 0 0 0-.322.322v2.571c0 .177.145.322.322.322h31.5a.322.322 0 0 0 .321-.322v-2.571a.322.322 0 0 0-.322-.322Zm0-12.535H2.25a.322.322 0 0 0-.322.321v2.572c0 .176.145.321.322.321h31.5a.322.322 0 0 0 .321-.321V16.94a.322.322 0 0 0-.322-.321Z"/>
</symbol>
<symbol id="minus" viewBox="0 0 36 37">
	<path fill="#7D8899" d="M32.465 16.71H3.536a.322.322 0 0 0-.321.32v2.411c0 .177.144.322.321.322h28.929a.322.322 0 0 0 .321-.322v-2.41a.322.322 0 0 0-.321-.322Z"/>
</symbol>
<symbol id="mir" viewBox="0 0 31 30">
	<g fill="#fff" clip-path="url(#mir-a)">
		<path d="m6.61 11.897-1.114 3.865h-.19l-1.114-3.865a1.532 1.532 0 0 0-1.472-1.104H.049v8.414h2.674v-4.973h.19l1.532 4.973h1.912l1.528-4.973h.19v4.973h2.675v-8.414H8.08c-.68 0-1.278.45-1.469 1.104Zm14.809 7.31h2.69v-2.488h2.708c1.416 0 2.622-.802 3.089-1.93h-8.487v4.418ZM16.65 11.68l-1.883 4.086h-.19v-4.973h-2.675v8.414h2.27c.599 0 1.14-.348 1.39-.887l1.883-4.083h.191v4.97h2.674v-8.414h-2.27c-.598 0-1.14.348-1.39.887ZM27.085 10.793c.772 0 1.472.296 2 .782A2.938 2.938 0 0 1 30 14.277h-4.968a3.762 3.762 0 0 1-3.588-2.63c-.006-.016-.01-.036-.016-.056-.013-.045-.023-.095-.036-.14a3.916 3.916 0 0 1-.096-.658h5.79Z"/>
	</g>

</symbol>
<symbol id="more" viewBox="0 0 36 36">
	<path d="M15.75 6.715a2.25 2.25 0 1 0 4.5 0 2.25 2.25 0 0 0-4.5 0Zm0 11.25a2.25 2.25 0 1 0 4.5 0 2.25 2.25 0 0 0-4.5 0Zm0 11.25a2.25 2.25 0 1 0 4.5 0 2.25 2.25 0 0 0-4.5 0Z"/>
</symbol>
<symbol id="percentage" viewBox="0 0 36 37">
	<path fill="#7D8899" d="m31.81 6.125-1.703-1.703a.323.323 0 0 0-.454 0L4.192 29.875a.323.323 0 0 0 0 .454l1.703 1.703c.125.125.33.125.454 0L31.807 6.575a.314.314 0 0 0 .004-.45Zm-22.166 9.53A5.792 5.792 0 0 0 15.43 9.87a5.792 5.792 0 0 0-5.786-5.786A5.792 5.792 0 0 0 3.858 9.87a5.792 5.792 0 0 0 5.786 5.785Zm0-8.678a2.896 2.896 0 0 1 2.893 2.893 2.896 2.896 0 0 1-2.893 2.893A2.896 2.896 0 0 1 6.751 9.87a2.896 2.896 0 0 1 2.893-2.893Zm16.714 13.821a5.792 5.792 0 0 0-5.785 5.786 5.792 5.792 0 0 0 5.785 5.786 5.792 5.792 0 0 0 5.786-5.786 5.792 5.792 0 0 0-5.786-5.786Zm0 8.679a2.896 2.896 0 0 1-2.893-2.893 2.896 2.896 0 0 1 2.893-2.893 2.896 2.896 0 0 1 2.893 2.893 2.896 2.896 0 0 1-2.893 2.893Z"/>
</symbol>
<symbol id="plus" viewBox="0 0 36 37">
	<path fill="#7D8899" d="M19.205 3.772h-2.41c-.215 0-.322.107-.322.321V16.71H4.5c-.215 0-.322.107-.322.322v2.41c0 .215.107.322.322.322h11.972v12.616c0 .214.107.321.321.321h2.411c.214 0 .322-.107.322-.321V19.763H31.5c.214 0 .321-.107.321-.322v-2.41c0-.215-.107-.322-.321-.322H19.526V4.093c0-.214-.107-.321-.321-.321Z"/>
</symbol>
<symbol id="radio" viewBox="0 0 16 16">
	<circle cx="8" cy="8" r="8" fill="#393185"/>
	<path fill="#fff" stroke="#393185" d="M.5 8a7.5 7.5 0 1 1 15 0 7.5 7.5 0 0 1-15 0Z"/>
	<rect width="8" height="8" x="4" y="4" fill="#393185" rx="4"/>
</symbol>
<symbol id="reload" viewBox="0 0 36 36">
	<path fill="#7D8899" d="M33.955 5.838 31.69 7.61C28.6 3.66 23.794 1.125 18.4 1.125c-9.318 0-16.86 7.533-16.872 16.855-.012 9.33 7.546 16.895 16.871 16.895 7.285 0 13.492-4.62 15.855-11.093a.322.322 0 0 0-.197-.414l-2.278-.784a.321.321 0 0 0-.406.193 13.746 13.746 0 0 1-3.198 4.994 13.73 13.73 0 0 1-9.767 4.05c-1.87 0-3.677-.365-5.377-1.084A13.72 13.72 0 0 1 8.64 27.77a13.747 13.747 0 0 1-2.961-4.395 13.75 13.75 0 0 1-1.085-5.38c0-1.868.365-3.676 1.085-5.38a13.748 13.748 0 0 1 2.96-4.395 13.731 13.731 0 0 1 9.767-4.05c1.87 0 3.678.365 5.377 1.084a13.72 13.72 0 0 1 4.392 2.966c.397.397.771.82 1.117 1.261l-2.42 1.889a.322.322 0 0 0 .121.566l7.056 1.728c.2.048.397-.105.397-.31l.033-7.268a.324.324 0 0 0-.523-.249Z"/>
</symbol>
<symbol id="sale" viewBox="0 0 36 36">
	<path d="M33.106 29.251H5.464V4.18a.322.322 0 0 0-.322-.322h-2.25a.322.322 0 0 0-.321.322v27.643c0 .176.144.321.321.321h30.214a.322.322 0 0 0 .322-.321v-2.25a.322.322 0 0 0-.322-.322Z"/>
	<path d="M10.169 9.576a.323.323 0 0 0-.454 0L8.128 11.17a.323.323 0 0 0 0 .454l7.384 7.34a.323.323 0 0 0 .454 0l5.12-5.15 9.24 9.237a.323.323 0 0 0 .454 0l1.591-1.591a.322.322 0 0 0 0-.454L21.306 9.946a.323.323 0 0 0-.454 0l-5.127 5.158-5.556-5.528Z"/>
</symbol>
<symbol id="search" viewBox="0 0 36 37">
	<path d="M33.976 32 23.54 21.566a11.946 11.946 0 0 0 2.495-7.345c0-3.222-1.257-6.244-3.531-8.522a11.964 11.964 0 0 0-8.522-3.531A11.981 11.981 0 0 0 5.46 5.699a11.958 11.958 0 0 0-3.532 8.522c0 3.218 1.258 6.248 3.532 8.522a11.958 11.958 0 0 0 8.522 3.532c2.692 0 5.247-.876 7.34-2.491l10.435 10.43a.328.328 0 0 0 .466 0l1.752-1.748a.33.33 0 0 0 0-.466ZM20.347 20.585a8.951 8.951 0 0 1-6.364 2.636 8.951 8.951 0 0 1-6.365-2.636 8.952 8.952 0 0 1-2.635-6.364c0-2.402.936-4.665 2.635-6.364a8.952 8.952 0 0 1 6.365-2.636c2.402 0 4.665.932 6.364 2.636a8.951 8.951 0 0 1 2.636 6.364 8.944 8.944 0 0 1-2.636 6.364Z"/>
</symbol>
<symbol id="share" viewBox="0 0 36 37">
	<path fill="#7D8899" d="M27.643 24.341a4.8 4.8 0 0 0-3.03 1.073l-8.325-6.023c.14-.765.14-1.549 0-2.314l8.325-6.023a4.8 4.8 0 0 0 3.03 1.073 4.825 4.825 0 0 0 4.821-4.821 4.825 4.825 0 0 0-4.821-4.822 4.825 4.825 0 0 0-4.633 6.16l-7.907 5.725a6.425 6.425 0 0 0-5.139-2.563 6.427 6.427 0 0 0-6.429 6.428 6.427 6.427 0 0 0 6.429 6.429 6.425 6.425 0 0 0 5.139-2.564l7.907 5.726a4.825 4.825 0 0 0 4.633 6.16 4.825 4.825 0 0 0 4.821-4.822 4.825 4.825 0 0 0-4.821-4.822Zm0-19.125a2.09 2.09 0 0 1 0 4.179 2.09 2.09 0 0 1 0-4.179ZM9.964 21.77a3.54 3.54 0 0 1-3.536-3.536 3.54 3.54 0 0 1 3.536-3.536 3.54 3.54 0 0 1 3.536 3.536 3.54 3.54 0 0 1-3.536 3.536Zm17.679 9.482a2.09 2.09 0 0 1 0-4.178 2.09 2.09 0 0 1 0 4.178Z"/>
</symbol>
<symbol id="shop" viewBox="0 0 36 36">
	<path fill="#fff" d="M31.008 9.566V5.062c0-.622-.502-1.125-1.125-1.125H6.118c-.623 0-1.125.503-1.125 1.126v4.503a1.124 1.124 0 0 0-1.055 1.121v4.63c-.002.852.17 1.694.506 2.476.151.358.338.696.549 1.016v12.128c0 .62.502 1.125 1.125 1.125h9.632v-6.187h4.5v6.188h9.633c.623 0 1.125-.503 1.125-1.126V18.81a6.284 6.284 0 0 0 1.055-3.491v-4.63c0-.598-.468-1.087-1.055-1.122Zm-2.531 19.969H22.5V24.75c0-.622-.502-1.125-1.125-1.125h-6.75c-.622 0-1.125.503-1.125 1.125v4.785H7.524V21.02c.102.05.207.098.316.14.784.331 1.617.496 2.475.496a6.35 6.35 0 0 0 2.475-.495 6.428 6.428 0 0 0 1.36-.777.023.023 0 0 1 .022 0c.42.314.877.575 1.36.776.784.331 1.618.496 2.475.496a6.35 6.35 0 0 0 2.475-.495 6.428 6.428 0 0 0 1.361-.777.023.023 0 0 1 .021 0c.42.314.877.575 1.36.776.785.331 1.618.496 2.476.496a6.35 6.35 0 0 0 2.791-.636v8.515h-.014Zm0-19.973H7.524V6.47h20.953v3.093Z"/>
</symbol>
<symbol id="shopping-cart" viewBox="0 0 36 37">
	<path fill="#7D8899" d="M32.447 24.91H11.512l1.051-2.14 17.466-.032c.59 0 1.096-.422 1.202-1.006L33.65 8.194a1.222 1.222 0 0 0-1.2-1.438l-22.218-.074-.19-.893a1.249 1.249 0 0 0-1.216-.984H3.394a1.241 1.241 0 0 0 0 2.482H7.82l.83 3.944 2.043 9.89-2.63 4.292a1.23 1.23 0 0 0-.105 1.294c.21.418.636.682 1.107.682h2.208a3.61 3.61 0 0 0 2.883 5.776 3.61 3.61 0 0 0 3.607-3.607 3.64 3.64 0 0 0-.725-2.17h5.664a3.61 3.61 0 0 0 2.883 5.776 3.61 3.61 0 0 0 3.607-3.606 3.64 3.64 0 0 0-.724-2.17h3.983c.682 0 1.24-.555 1.24-1.24a1.245 1.245 0 0 0-1.244-1.238ZM10.75 9.13l20.243.067-1.983 11.102-15.901.028-2.359-11.197Zm3.407 21.54c-.612 0-1.111-.5-1.111-1.111 0-.612.499-1.11 1.11-1.11a1.113 1.113 0 0 1 .786 1.896c-.208.208-.49.325-.785.325Zm11.429 0c-.612 0-1.111-.5-1.111-1.111 0-.612.5-1.11 1.11-1.11a1.113 1.113 0 0 1 .787 1.896c-.209.208-.491.325-.786.325Z"/>
</symbol>
<symbol id="user" viewBox="0 0 36 37">
	<path d="M31.92 28.338a15.029 15.029 0 0 0-3.238-4.801 15.093 15.093 0 0 0-4.801-3.238c-.016-.008-.032-.012-.048-.02a9.943 9.943 0 0 0 4.13-8.076A9.963 9.963 0 0 0 18 2.238a9.963 9.963 0 0 0-9.964 9.965 9.956 9.956 0 0 0 4.13 8.08c-.016.008-.032.011-.048.02-1.8.759-3.415 1.848-4.802 3.238a15.092 15.092 0 0 0-3.238 4.801 14.934 14.934 0 0 0-1.185 5.549.321.321 0 0 0 .321.33h2.41a.32.32 0 0 0 .322-.314 11.979 11.979 0 0 1 3.528-8.208 11.974 11.974 0 0 1 8.526-3.532c3.222 0 6.248 1.253 8.526 3.531a11.978 11.978 0 0 1 3.527 8.209.318.318 0 0 0 .322.313h2.41a.323.323 0 0 0 .322-.33 14.974 14.974 0 0 0-1.185-5.552ZM18 19.113c-1.844 0-3.58-.719-4.886-2.025a6.866 6.866 0 0 1-2.025-4.886c0-1.844.72-3.58 2.025-4.885A6.866 6.866 0 0 1 18 5.292c1.844 0 3.58.719 4.886 2.025a6.866 6.866 0 0 1 2.025 4.886c0 1.844-.72 3.58-2.025 4.885a6.866 6.866 0 0 1-4.886 2.025Z"/>
</symbol>
<symbol id="view_1" viewBox="0 0 36 36">
	<rect width="14" height="14" x="3" y="3" fill="#7D8899" rx="2"/>
	<rect width="14" height="14" x="3" y="19" fill="#7D8899" rx="2"/>
	<rect width="14" height="14" x="19" y="19" fill="#7D8899" rx="2"/>
	<rect width="14" height="14" x="19" y="3" fill="#7D8899" rx="2"/>
</symbol>
<symbol id="view_2" viewBox="0 0 36 36">
	<rect width="8" height="8" x="3" y="4" fill="#7D8899" rx="1"/>
	<rect width="20" height="8" x="13" y="4" fill="#7D8899" rx="1"/>
	<rect width="8" height="8" x="3" y="14" fill="#7D8899" rx="1"/>
	<rect width="20" height="8" x="13" y="14" fill="#7D8899" rx="1"/>
	<rect width="8" height="8" x="3" y="24" fill="#7D8899" rx="1"/>
	<rect width="20" height="8" x="13" y="24" fill="#7D8899" rx="1"/>
</symbol>
<symbol id="visa" viewBox="0 0 31 30">
	<g clip-path="url(#visa-a)">
		<path fill="#fff" d="M17.304 20.25c-.93 0-1.861-.134-2.72-.47l.429-1.88h.072a5.514 5.514 0 0 0 2.362.537h.072c.716 0 1.432-.27 1.432-.874 0-.403-.287-.671-1.289-1.074-.93-.403-2.148-1.142-2.148-2.35 0-1.68 1.719-2.889 4.081-2.889.788 0 1.575.134 2.291.403l-.43 1.813a5.076 5.076 0 0 0-2.004-.403h-.43c-.715.068-1.002.47-1.002.74 0 .402.573.67 1.217 1.007 1.003.47 2.22 1.074 2.22 2.418.071 1.88-1.575 3.022-4.153 3.022Zm6.659-.134h-2.578l3.652-8.06c.143-.403.573-.672 1.002-.672h2.076l1.934 8.732h-2.22l-.286-1.276h-3.08l-.5 1.276Zm2.506-6.38-1.29 3.29h2.006l-.716-3.29Zm-13.533 6.38h-2.434l2.005-8.732h2.434l-2.005 8.732Zm-5.441 0H4.917l-1.933-6.918c0-.336-.286-.605-.573-.739-.787-.336-1.575-.604-2.362-.739l.071-.269h4.153c.573 0 1.002.403 1.146.874l1.002 5.037 2.506-5.91h2.578l-4.01 8.664Z"/>
	</g>

</symbol>
<symbol id="zoom" viewBox="0 0 36 37">
	<path fill="#7D8899" d="M23.022 15.464H18.28V10.08a.322.322 0 0 0-.322-.322h-2.41a.322.322 0 0 0-.322.322v5.384h-4.74a.322.322 0 0 0-.322.321v2.41c0 .177.144.322.321.322h4.741v5.384c0 .177.145.322.322.322h2.41a.322.322 0 0 0 .322-.322v-5.384h4.74a.322.322 0 0 0 .322-.321v-2.411a.322.322 0 0 0-.321-.321Zm11.41 17.035-5.866-5.866c4.906-5.982 4.565-14.846-1.044-20.45-5.946-5.951-15.605-5.951-21.576 0-5.95 5.97-5.95 15.629 0 21.575 5.605 5.61 14.468 5.95 20.45 1.045l5.867 5.866c.129.112.333.112.442 0l1.728-1.728c.112-.108.112-.313 0-.442Zm-9.04-6.87c-4.773 4.769-12.503 4.769-17.276 0-4.77-4.774-4.77-12.504 0-17.277 4.773-4.77 12.503-4.77 17.276 0 4.77 4.773 4.77 12.503 0 17.277Z"/>
</symbol>
</svg>